<svg width="1024" height="1024" viewBox="0 0 1024 1024" xmlns="http://www.w3.org/2000/svg">
  <defs>
    <linearGradient id="mask" x1="0" y1="0" x2="0" y2="1">
      <stop offset="0" stop-color="#FFC24B"/>
      <stop offset="1" stop-color="#F0A81E"/>
    </linearGradient>
  </defs>
  <!-- logo only (no background) for the adaptive-icon foreground layer;
       scaled/centered into the safe zone -->
  <g transform="translate(182,182) scale(1.29)">
    <path d="M120 208
             C120 176 150 160 190 162
             C220 163 240 176 256 176
             C272 176 292 163 322 162
             C362 160 392 176 392 208
             C392 250 360 296 316 296
             C288 296 272 280 256 280
             C240 280 224 296 196 296
             C152 296 120 250 120 208 Z"
          fill="url(#mask)"/>
    <ellipse cx="192" cy="222" rx="30" ry="26" fill="#14121F"/>
    <ellipse cx="320" cy="222" rx="30" ry="26" fill="#14121F"/>
    <circle cx="204" cy="214" r="7" fill="#EFEAFE"/>
    <circle cx="332" cy="214" r="7" fill="#EFEAFE"/>
    <text x="256" y="392" font-family="'Bricolage Grotesque','Outfit',system-ui,sans-serif"
          font-size="120" font-weight="800" fill="#EFEAFE" text-anchor="middle">?</text>
  </g>
</svg>
